<svg width="426" height="377" viewBox="0 0 426 377" fill="none" xmlns="http://www.w3.org/2000/svg">
<path d="M354.753 70.502C354.753 109.439 323.186 141.004 284.247 141.004C245.308 141.004 213.742 109.439 213.742 70.502C213.742 31.5648 245.308 0 284.247 0C323.186 0 354.753 31.5648 354.753 70.502Z" fill="#0D0D0D"/>
<path d="M212.258 164.01C212.258 222.621 164.742 270.134 106.129 270.134C47.5155 270.134 0 222.621 0 164.01C0 105.399 47.5155 57.8858 106.129 57.8858C164.742 57.8858 212.258 105.399 212.258 164.01Z" fill="#0D0D0D"/>
<path d="M426 270.876C426 329.487 378.484 377 319.871 377C261.258 377 213.742 329.487 213.742 270.876C213.742 212.265 261.258 164.752 319.871 164.752C378.484 164.752 426 212.265 426 270.876Z" fill="#0D0D0D"/>
</svg>

