<svg viewBox="0 0 32 32" xmlns="http://www.w3.org/2000/svg">
<path d="M 23.164 16.302 C 23.784 15.761 24.592 14.863 25.091 13.82 L 18.253 13.82 L 18.253 18.25 L 22.755 18.25 L 22.755 19.615 C 22.755 19.615 21.685 19.567 21.223 19.567 C 23.413 20.557 23.781 23.667 22.048 24.921 C 20.793 25.829 19.428 25.649 18.253 25.088 L 18.253 30.106 L 19.619 30.106 C 19.619 30.106 19.584 29.153 19.569 28.151 C 22.669 32.221 29.843 31.433 30.934 25.396 C 31.936 19.854 27.468 16.569 23.16 16.298 Z" fill="white"/>
<path d="M 13.824 18.253 L 13.824 22.755 L 12.458 22.755 C 12.458 22.755 12.507 21.685 12.507 21.223 C 11.515 23.413 8.407 23.781 7.152 22.048 C 6.244 20.793 6.424 19.428 6.986 18.253 L 1.967 18.253 L 1.967 19.619 C 1.967 19.619 2.92 19.584 3.922 19.57 C -0.147 22.668 0.64 29.843 6.677 30.934 C 12.219 31.936 15.505 27.469 15.775 23.161 C 16.315 23.781 17.213 24.588 18.256 25.088 L 18.256 18.25 L 13.827 18.25 Z" fill="white"/>
<path d="M 13.824 13.824 L 9.322 13.824 L 9.322 12.458 C 9.322 12.458 10.392 12.507 10.853 12.507 C 8.663 11.515 8.296 8.407 10.029 7.152 C 11.283 6.244 12.649 6.424 13.824 6.986 L 13.824 1.967 L 12.458 1.967 C 12.458 1.967 12.493 2.92 12.507 3.922 C 9.408 -0.148 2.234 0.64 1.142 6.677 C 0.141 12.219 4.608 15.505 8.916 15.775 C 8.296 16.315 7.488 17.213 6.989 18.256 L 13.827 18.256 L 13.827 13.827 Z" fill="white"/>
<path d="M 18.253 13.824 L 18.253 9.322 L 19.619 9.322 C 19.619 9.322 19.57 10.392 19.57 10.853 C 20.561 8.663 23.67 8.296 24.925 10.029 C 25.833 11.283 25.653 12.649 25.091 13.824 L 30.11 13.824 L 30.11 12.458 C 30.11 12.458 29.157 12.493 28.155 12.507 C 32.224 9.408 31.437 2.234 25.4 1.142 C 19.858 0.141 16.572 4.608 16.302 8.916 C 15.762 8.296 14.864 7.488 13.82 6.989 L 13.82 13.827 L 18.25 13.827 Z" fill="white"/>
</svg>
